<?xml version="1.0" standalone="no"?>
<!DOCTYPE svg PUBLIC "-//W3C//DTD SVG 20010904//EN"
 "http://www.w3.org/TR/2001/REC-SVG-20010904/DTD/svg10.dtd">
<svg version="1.0" xmlns="http://www.w3.org/2000/svg"
 width="253.000000pt" height="253.000000pt" viewBox="0 0 253.000000 253.000000"
 preserveAspectRatio="xMidYMid meet">
<metadata>
Created by potrace 1.11, written by Peter Selinger 2001-2013
</metadata>
<g transform="translate(0.000000,253.000000) scale(0.100000,-0.100000)"
fill="#000000" stroke="none">
<path d="M800 2153 l-555 -278 -3 -568 c-1 -312 1 -567 5 -567 5 0 59 25 120
57 l113 58 0 436 c0 333 3 439 13 451 6 9 203 112 435 229 233 116 426 217
428 223 3 7 3 63 2 124 l-3 112 -555 -277z"/>
<path d="M1108 1983 l-548 -274 0 -570 c0 -314 3 -569 7 -566 5 2 59 27 121
57 l112 54 0 435 c0 255 4 442 10 451 5 8 202 112 437 230 l428 215 3 123 c2
94 0 122 -10 121 -7 -1 -259 -125 -560 -276z"/>
<path d="M1444 1822 c-292 -147 -538 -273 -547 -281 -15 -12 -17 -65 -17 -572
l0 -559 120 60 120 60 0 423 0 422 29 35 c23 28 115 78 440 240 l411 205 0
117 c0 88 -3 118 -12 117 -7 0 -252 -121 -544 -267z"/>
<path d="M1749 1644 c-283 -142 -522 -264 -531 -272 -17 -14 -18 -57 -18 -629
0 -404 4 -621 10 -634 6 -10 19 -19 29 -19 30 0 1060 519 1071 540 6 12 10
240 10 632 0 637 0 638 -40 638 -9 0 -248 -115 -531 -256z"/>
<path d="M385 713 c-148 -75 -170 -99 -127 -135 25 -22 851 -433 857 -426 3 3
4 69 3 147 l-3 141 -113 -56 c-85 -41 -120 -54 -139 -49 -51 12 -58 30 -63
157 l-5 118 -112 -55 c-61 -30 -120 -55 -131 -55 -10 0 -30 9 -43 21 -22 19
-24 30 -29 130 l-5 108 -90 -46z"/>
</g>
</svg>
