<!-- Generator: Adobe Illustrator 21.0.0, SVG Export Plug-In . SVG Version: 6.00 Build 0)  -->
<svg enable-background="new 0 0 16 16" version="1.0" viewBox="0 0 16 16" xml:space="preserve" xmlns="http://www.w3.org/2000/svg" xmlns:cc="http://creativecommons.org/ns#" xmlns:dc="http://purl.org/dc/elements/1.1/" xmlns:rdf="http://www.w3.org/1999/02/22-rdf-syntax-ns#"><metadata><rdf:RDF><cc:Work rdf:about=""><dc:format>image/svg+xml</dc:format><dc:type rdf:resource="http://purl.org/dc/dcmitype/StillImage"/><dc:title/></cc:Work></rdf:RDF></metadata><defs><pattern id="EMFhbasepattern" width="6" height="6" patternUnits="userSpaceOnUse"/></defs><style type="text/css">
	.st0{fill:#606262;}
</style><g><path d="m4 2.3v11.4h8.7v-8.2l-3.2-3.2z" fill="#ffffff" style="paint-order:markers fill stroke"/><path d="m3.35 1c-0.359-1.8e-4 -0.651 0.291-0.65 0.65v13c-1.8e-4 0.359 0.291 0.651 0.65 0.65h10.3c0.359 1.8e-4 0.651-0.291 0.65-0.65v-9c-4.48e-4 -0.172-0.0693-0.337-0.191-0.459l-4-4c-0.122-0.122-0.287-0.191-0.459-0.191zm0.65 1.3h5v3.35c-1.8e-4 0.359 0.291 0.651 0.65 0.65h3.35v7.7h-9zm6.3 0.92 1.78 1.78h-1.78z" color="#000000" color-rendering="auto" dominant-baseline="auto" enable-background="accumulate" fill="#979593" fill-rule="evenodd" image-rendering="auto" shape-rendering="auto" solid-color="#000000" style="font-feature-settings:normal;font-variant-alternates:normal;font-variant-caps:normal;font-variant-ligatures:normal;font-variant-numeric:normal;font-variant-position:normal;isolation:auto;mix-blend-mode:normal;shape-padding:0;text-decoration-color:#000000;text-decoration-line:none;text-decoration-style:solid;text-indent:0;text-orientation:mixed;text-transform:none;white-space:normal"/></g></svg>
